<?xml version="1.0" encoding="UTF-8" standalone="no"?>
<svg width="24px" height="49px" viewBox="0 0 24 49" version="1.1" xmlns="http://www.w3.org/2000/svg" xmlns:xlink="http://www.w3.org/1999/xlink" xmlns:sketch="http://www.bohemiancoding.com/sketch/ns">
    <!-- Generator: Sketch 3.3.2 (12043) - http://www.bohemiancoding.com/sketch -->
    <title>favorite_sprite</title>
    <desc>Created with Sketch.</desc>
    <defs></defs>
    <g id="Page-1" stroke="none" stroke-width="1" fill="none" fill-rule="evenodd" sketch:type="MSPage">
        <g id="favorite_sprite" sketch:type="MSArtboardGroup">
            <g sketch:type="MSLayerGroup">
                <g id="ic_favorite_outline-copy" transform="translate(0.000000, 25.000000)" sketch:type="MSShapeGroup">
                    <path d="M0,0 L24,0 L24,24 L0,24 L0,0 Z" id="Bounds"></path>
                    <path d="M16.5,3 C14.76,3 13.09,3.81 12,5.09 C10.91,3.81 9.24,3 7.5,3 C4.42,3 2,5.42 2,8.5 C2,12.28 5.4,15.36 10.55,20.04 L12,21.35 L13.45,20.03 C18.6,15.36 22,12.28 22,8.5 C22,5.42 19.58,3 16.5,3 L16.5,3 Z M12.1,18.55 L12,18.65 L11.9,18.55 C7.14,14.24 4,11.39 4,8.5 C4,6.5 5.5,5 7.5,5 C9.04,5 10.54,5.99 11.07,7.36 L12.94,7.36 C13.46,5.99 14.96,5 16.5,5 C18.5,5 20,6.5 20,8.5 C20,11.39 16.86,14.24 12.1,18.55 L12.1,18.55 Z" id="Shape" fill-opacity="0.7" fill="#000000"></path>
                </g>
                <g id="ic_favorite-copy" transform="translate(0.000000, 0.500000)" sketch:type="MSShapeGroup">
                    <path d="M0,0 L24,0 L24,24 L0,24 L0,0 Z" id="Bounds"></path>
                    <path d="M12,21.35 L10.55,20.03 C5.4,15.36 2,12.28 2,8.5 C2,5.42 4.42,3 7.5,3 C9.24,3 10.91,3.81 12,5.09 C13.09,3.81 14.76,3 16.5,3 C19.58,3 22,5.42 22,8.5 C22,12.28 18.6,15.36 13.45,20.04 L12,21.35 L12,21.35 Z" id="Shape" fill="#CE272D"></path>
                </g>
            </g>
        </g>
    </g>
</svg>